<?xml version="1.0" encoding="utf-8"?>
<!-- Generator: Adobe Illustrator 23.0.4, SVG Export Plug-In . SVG Version: 6.00 Build 0)  -->
<svg version="1.1" id="Layer_1" xmlns="http://www.w3.org/2000/svg" xmlns:xlink="http://www.w3.org/1999/xlink" x="0px" y="0px"
	 viewBox="0 0 32 32" style="enable-background:new 0 0 32 32;" xml:space="preserve">
<style type="text/css">
	.st0{fill:#383B53;}
</style>
<title>Artboard 9 copy 2</title>
<g id="Vector_Graphics">
	<path class="st0" d="M16,0C7.2,0,0,7.2,0,16s7.2,16,16,16s16-7.2,16-16S24.8,0,16,0z M19.4,16h-2.2v8h-3.3v-8h-1.6v-2.8h1.6v-1.8
		C13.7,9.6,15,8.1,16.7,8c0.2,0,0.3,0,0.5,0h2.5v2.7h-1.8c-0.4,0-0.7,0.3-0.7,0.7c0,0,0,0.1,0,0.1v1.7h2.5L19.4,16z"/>
</g>
</svg>
