<svg xmlns="http://www.w3.org/2000/svg" viewBox="0 0 32 32"><defs><style>.cls-1{fill:#fff;}</style></defs><title>Artboard 14 copy</title><g id="Vector_Graphics" data-name="Vector Graphics"><polygon class="cls-1" points="10.92 20.57 10.92 20.56 10.92 20.56 10.92 20.57"/><path class="cls-1" d="M15.62,13.76a38.66,38.66,0,0,0-2.54-3.94,6.88,6.88,0,0,0-3.77,4.77A24.88,24.88,0,0,0,15.62,13.76Z"/><path class="cls-1" d="M20.51,10.87A6.79,6.79,0,0,0,16,9.17a7.16,7.16,0,0,0-1.61.19,34.46,34.46,0,0,1,2.55,4A7.38,7.38,0,0,0,20.51,10.87Z"/><path class="cls-1" d="M14.36,9.37h0Z"/><path class="cls-1" d="M16.47,16.05l.27-.08c-.17-.39-.36-.78-.55-1.16a25.47,25.47,0,0,1-7,1V16a6.79,6.79,0,0,0,1.75,4.56A10.8,10.8,0,0,1,16.47,16.05Z"/><path class="cls-1" d="M17.16,17.12a9.31,9.31,0,0,0-5.36,4.26A6.85,6.85,0,0,0,16,22.83a6.77,6.77,0,0,0,2.67-.54,28.45,28.45,0,0,0-1.46-5.19Z"/><path class="cls-1" d="M11.8,21.39h0s-.1-.07-.15-.11Z"/><path class="cls-1" d="M17.47,14.37q.24.48.45,1l.15.35a15.76,15.76,0,0,1,4.76.22,6.8,6.8,0,0,0-1.55-4.27A8.91,8.91,0,0,1,17.47,14.37Z"/><path class="cls-1" d="M16,0A16,16,0,1,0,32,16,16,16,0,0,0,16,0Zm7.84,17.61a8.24,8.24,0,0,1-.47,1.51,7.69,7.69,0,0,1-.74,1.35,7.88,7.88,0,0,1-1,1.19,7.42,7.42,0,0,1-1.19,1,7.78,7.78,0,0,1-1.36.74,8.05,8.05,0,0,1-4.72.47,8,8,0,0,1-1.51-.47,7.69,7.69,0,0,1-1.35-.74,7.42,7.42,0,0,1-1.19-1,7.88,7.88,0,0,1-1-1.19,7.69,7.69,0,0,1-.74-1.35,8.24,8.24,0,0,1-.47-1.51,8.1,8.1,0,0,1,2.18-7.27,7.42,7.42,0,0,1,1.19-1,7.69,7.69,0,0,1,1.35-.74,8.81,8.81,0,0,1,1.51-.47,8.18,8.18,0,0,1,3.22,0,8.7,8.7,0,0,1,1.5.47,7.78,7.78,0,0,1,1.36.74,7.42,7.42,0,0,1,1.19,1,7.88,7.88,0,0,1,1,1.19,7.78,7.78,0,0,1,.74,1.36,8.05,8.05,0,0,1,.47,4.72Z"/><path class="cls-1" d="M18.49,16.79a30,30,0,0,1,1.33,4.88,6.89,6.89,0,0,0,2.93-4.58A9.75,9.75,0,0,0,18.49,16.79Z"/></g></svg>