<svg xmlns="http://www.w3.org/2000/svg" viewBox="0 0 32 32"><defs><style>.cls-1{fill:#fff;}</style></defs><title>icon-insta-white</title><g id="Vector_Graphics" data-name="Vector Graphics"><path class="cls-1" d="M19.44,9.08C18.54,9,18.27,9,16,9s-2.54,0-3.44.05c-2.3.1-3.38,1.2-3.48,3.48C9,13.46,9,13.73,9,16s0,2.54.05,3.44c.1,2.28,1.17,3.38,3.48,3.48.9,0,1.17,0,3.44,0s2.54,0,3.44,0c2.3-.1,3.38-1.2,3.48-3.48,0-.9,0-1.17,0-3.44s0-2.54,0-3.44C22.82,10.28,21.74,9.18,19.44,9.08ZM16,20.37A4.37,4.37,0,1,1,20.37,16,4.37,4.37,0,0,1,16,20.37Zm4.54-7.89a1,1,0,1,1,1-1A1,1,0,0,1,20.54,12.48Z"/><path class="cls-1" d="M16,13.17A2.83,2.83,0,1,0,18.83,16,2.82,2.82,0,0,0,16,13.17Z"/><path class="cls-1" d="M16,0A16,16,0,1,0,32,16,16,16,0,0,0,16,0Zm8.45,19.51c-.14,3.09-1.86,4.8-4.94,4.94-.91,0-1.2.05-3.51.05s-2.6,0-3.51-.05c-3.09-.14-4.8-1.86-4.94-4.94,0-.91,0-1.2,0-3.51s0-2.6,0-3.51c.14-3.09,1.86-4.8,4.94-4.94.91,0,1.2,0,3.51,0s2.6,0,3.51,0c3.09.14,4.8,1.86,4.94,4.94,0,.91.05,1.2.05,3.51S24.49,18.6,24.45,19.51Z"/></g></svg>