<?xml version="1.0" encoding="utf-8"?>
<!-- Generator: Adobe Illustrator 23.0.4, SVG Export Plug-In . SVG Version: 6.00 Build 0)  -->
<svg version="1.1" id="Layer_1" xmlns="http://www.w3.org/2000/svg" xmlns:xlink="http://www.w3.org/1999/xlink" x="0px" y="0px"
	 viewBox="0 0 32 32" style="enable-background:new 0 0 32 32;" xml:space="preserve">
<style type="text/css">
	.st0{fill:#383B53;}
</style>
<title>icon-insta-black</title>
<g id="Vector_Graphics">
	<path class="st0" d="M19.4,9.1C18.5,9,18.3,9,16,9s-2.5,0-3.4,0.1c-2.3,0.1-3.4,1.2-3.5,3.5C9,13.5,9,13.7,9,16s0,2.5,0.1,3.4
		c0.1,2.3,1.2,3.4,3.5,3.5c0.9,0,1.2,0,3.4,0s2.5,0,3.4,0c2.3-0.1,3.4-1.2,3.5-3.5c0-0.9,0-1.2,0-3.4s0-2.5,0-3.4
		C22.8,10.3,21.7,9.2,19.4,9.1z M16,20.4c-2.4,0-4.4-2-4.4-4.4s2-4.4,4.4-4.4s4.4,2,4.4,4.4S18.4,20.4,16,20.4L16,20.4z M20.5,12.5
		c-0.6,0-1-0.4-1-1s0.4-1,1-1s1,0.4,1,1C21.5,12,21.1,12.5,20.5,12.5z"/>
	<path class="st0" d="M16,13.2c-1.6,0-2.8,1.3-2.8,2.8s1.3,2.8,2.8,2.8s2.8-1.3,2.8-2.8l0,0C18.8,14.4,17.6,13.2,16,13.2
		C16,13.2,16,13.2,16,13.2z"/>
	<path class="st0" d="M16,0C7.2,0,0,7.2,0,16s7.2,16,16,16s16-7.2,16-16S24.8,0,16,0z M24.5,19.5c-0.1,3.1-1.9,4.8-4.9,4.9
		c-0.9,0-1.2,0-3.5,0s-2.6,0-3.5,0c-3.1-0.1-4.8-1.9-4.9-4.9c0-0.9,0-1.2,0-3.5s0-2.6,0-3.5c0.1-3.1,1.9-4.8,4.9-4.9
		c0.9,0,1.2,0,3.5,0s2.6,0,3.5,0c3.1,0.1,4.8,1.9,4.9,4.9c0,0.9,0,1.2,0,3.5S24.5,18.6,24.5,19.5z"/>
</g>
</svg>
