<?xml version="1.0" encoding="utf-8"?>
<!-- Generator: Adobe Illustrator 23.0.4, SVG Export Plug-In . SVG Version: 6.00 Build 0)  -->
<svg version="1.1" id="Layer_1" xmlns="http://www.w3.org/2000/svg" xmlns:xlink="http://www.w3.org/1999/xlink" x="0px" y="0px"
	 viewBox="0 0 32 32" style="enable-background:new 0 0 32 32;" xml:space="preserve">
<style type="text/css">
	.st0{fill:#383B53;}
</style>
<title>Artboard 14 copy 2</title>
<g id="Vector_Graphics">
	<polygon class="st0" points="10.9,20.6 10.9,20.6 10.9,20.6 	"/>
	<path class="st0" d="M15.6,13.8c-0.8-1.4-1.6-2.7-2.5-3.9c-1.9,0.9-3.3,2.7-3.8,4.8C11.4,14.6,13.6,14.3,15.6,13.8z"/>
	<path class="st0" d="M20.5,10.9c-1.2-1.1-2.8-1.7-4.5-1.7c-0.5,0-1.1,0.1-1.6,0.2c0.9,1.3,1.8,2.6,2.6,4
		C18.4,12.9,19.6,12,20.5,10.9z"/>
	<path class="st0" d="M14.4,9.4L14.4,9.4z"/>
	<path class="st0" d="M16.5,16l0.3-0.1c-0.2-0.4-0.4-0.8-0.5-1.2c-2.3,0.7-4.6,1-7,1V16c0,1.7,0.6,3.3,1.8,4.6
		C12.2,18.5,14.2,16.9,16.5,16z"/>
	<path class="st0" d="M17.2,17.1c-2.3,0.7-4.2,2.2-5.4,4.3c1.2,0.9,2.7,1.4,4.2,1.4c0.9,0,1.8-0.2,2.7-0.5
		C18.3,20.5,17.9,18.8,17.2,17.1L17.2,17.1z"/>
	<path class="st0" d="M11.8,21.4L11.8,21.4c0,0-0.1-0.1-0.1-0.1L11.8,21.4z"/>
	<path class="st0" d="M17.5,14.4c0.2,0.3,0.3,0.7,0.5,1l0.1,0.4c1.6-0.2,3.2-0.1,4.8,0.2c0-1.6-0.6-3.1-1.5-4.3
		C20.3,12.9,19,13.8,17.5,14.4z"/>
	<path class="st0" d="M16,0C7.2,0,0,7.2,0,16s7.2,16,16,16s16-7.2,16-16S24.8,0,16,0z M23.8,17.6c-0.1,0.5-0.3,1-0.5,1.5
		c-0.2,0.5-0.4,0.9-0.7,1.4c-0.3,0.4-0.6,0.8-1,1.2c-0.4,0.4-0.8,0.7-1.2,1c-0.4,0.3-0.9,0.5-1.4,0.7c-1.5,0.6-3.1,0.8-4.7,0.5
		c-0.5-0.1-1-0.3-1.5-0.5c-0.5-0.2-0.9-0.4-1.4-0.7c-0.4-0.3-0.8-0.6-1.2-1c-0.4-0.4-0.7-0.8-1-1.2C9,20,8.8,19.6,8.6,19.1
		c-0.2-0.5-0.4-1-0.5-1.5c-0.5-2.6,0.3-5.4,2.2-7.3c0.4-0.4,0.8-0.7,1.2-1c0.4-0.3,0.9-0.5,1.4-0.7c0.5-0.2,1-0.4,1.5-0.5
		c1.1-0.2,2.2-0.2,3.2,0c0.5,0.1,1,0.3,1.5,0.5C19.5,8.8,20,9,20.4,9.3c0.4,0.3,0.8,0.6,1.2,1c0.4,0.4,0.7,0.8,1,1.2
		c0.3,0.4,0.5,0.9,0.7,1.4C24,14.4,24.1,16,23.8,17.6L23.8,17.6z"/>
	<path class="st0" d="M18.5,16.8c0.6,1.6,1,3.2,1.3,4.9c1.6-1.1,2.6-2.7,2.9-4.6C21.4,16.7,19.9,16.6,18.5,16.8z"/>
</g>
</svg>
